<svg width="641" height="123" viewBox="0 0 641 123" fill="none" xmlns="http://www.w3.org/2000/svg" preserveAspectRatio="none">
  <path d="M446.997 0C449.675 0 452.374 0.14098 455.039 0.47998H482.868C490.641 0.47998 497.127 6.41899 497.81 14.162C497.816 14.239 497.924 14.249 497.945 14.174L498.685 11.493C500.478 4.98698 506.396 0.47998 513.144 0.47998H532.393C538.296 0.47998 543.65 3.94201 546.071 9.32501L551.406 21.181C551.849 22.165 552.863 22.752 553.943 22.752C559.13 22.752 564.409 24.437 568.709 28.318L569.122 28.701L569.526 29.094C573.629 33.197 575.711 38.534 575.711 44.136C575.711 50.535 579.535 58.48 585.934 58.48H624.14C631.92 58.48 638.41 64.431 639.08 72.183L640.67 90.422C640.67 90.423 640.66 90.423 640.66 90.423C641.41 98.983 639.19 108.046 631.68 114.662C631.67 114.667 631.67 114.672 631.66 114.677C631.65 114.689 631.64 114.702 631.62 114.713C631.62 114.714 631.62 114.714 631.62 114.713C624.67 120.833 615.73 122.513 607.67 122.513C601.25 122.513 594.67 121.456 588.75 118.498C587.487 117.868 585.921 118.828 586.04 120.235C586.125 121.227 585.342 122.08 584.345 122.08H545.902C544.633 122.08 543.575 121.108 543.467 119.843C543.299 117.872 540.934 116.86 539.226 117.859C533.115 121.434 526.094 122.513 519.642 122.513C516.836 122.513 514 122.311 511.203 121.837C504.518 120.704 497.348 121.166 490.608 121.899C489.445 122.026 488.307 122.08 487.211 122.08H160.629C160.616 122.08 160.606 122.091 160.607 122.104C160.608 122.117 160.597 122.128 160.585 122.128H129.782C129.624 122.128 129.477 122.046 129.394 121.912C129.293 121.748 129.101 121.666 128.912 121.704C125.89 122.311 122.827 122.56 119.843 122.56C117.48 122.56 115.126 122.407 112.807 122.08H18.746C10.967 122.08 4.479 116.133 3.803 108.383L0.874988 74.782C0.110988 66.018 7.01998 58.48 15.818 58.48H42.458L43.028 58.485C46.18 58.542 49.402 59.07 52.501 60.233C53.209 60.499 54.011 60.12 54.212 59.391C54.36 58.853 54.849 58.48 55.407 58.48H55.596C56.469 58.48 57.155 57.733 57.079 56.863L56.514 50.383L53.586 16.782C52.822 8.01798 59.731 0.47998 68.529 0.47998H226.444C226.65 0.47998 226.843 0.578995 226.964 0.744995L227.03 0.835022C227.276 1.17302 227.79 1.14102 227.993 0.775024C228.094 0.593024 228.286 0.47998 228.494 0.47998H267.852C275.626 0.47998 282.111 6.41899 282.794 14.162C282.801 14.239 282.909 14.249 282.929 14.174L283.669 11.493C285.463 4.98698 291.38 0.47998 298.129 0.47998H326.205C326.735 0.47998 327.216 0.791024 327.434 1.27502L327.899 2.30902C328.433 3.49502 330.215 3.03099 330.103 1.73499C330.044 1.06099 330.576 0.47998 331.253 0.47998H372.997C376.33 0.47998 379.754 0.999971 383.04 2.23297C383.748 2.49897 384.55 2.11999 384.751 1.39099C384.899 0.852991 385.389 0.47998 385.946 0.47998H423.841C424.774 0.47998 425.619 1.02699 426.002 1.87799C426.558 3.11499 428.036 3.62599 429.288 3.10199C434.892 0.75799 441.055 0 446.997 0ZM605.36 107.448C605.81 107.474 606.27 107.491 606.73 107.501C606.21 107.49 605.69 107.467 605.19 107.437C605.25 107.44 605.3 107.445 605.36 107.448ZM516.223 107.369C516.375 107.382 516.528 107.392 516.682 107.403C516.45 107.386 516.219 107.368 515.991 107.347C516.068 107.354 516.145 107.362 516.223 107.369ZM514.283 107.14C514.568 107.182 514.856 107.223 515.148 107.258C515.399 107.288 515.654 107.314 515.911 107.339C515.356 107.285 514.813 107.219 514.283 107.14ZM236.082 90.472C236.082 90.472 236.082 90.473 236.083 90.473H236.473C236.59 90.473 236.701 90.525 236.776 90.616L250.29 107.08L236.776 90.615C236.701 90.524 236.59 90.472 236.473 90.472H236.083C236.082 90.472 236.082 90.472 236.082 90.472ZM513.094 106.938C513.164 106.952 513.234 106.964 513.305 106.977C513.068 106.933 512.833 106.888 512.601 106.839L513.094 106.938ZM533.706 103.432C533.418 103.687 533.116 103.931 532.8 104.162C532.905 104.085 533.009 104.006 533.112 103.927C533.316 103.767 533.514 103.602 533.706 103.432ZM621.74 103.432C621.64 103.517 621.54 103.601 621.44 103.684L621.74 103.432ZM622 103.199C622 103.191 622.01 103.182 622.02 103.174C622.06 103.14 622.09 103.103 622.13 103.068C622.09 103.112 622.04 103.156 622 103.199ZM534.208 102.965C534.228 102.946 534.248 102.928 534.268 102.908C534.287 102.889 534.304 102.869 534.322 102.85C534.284 102.888 534.247 102.927 534.208 102.965ZM623.01 102.128C623.03 102.108 623.05 102.09 623.06 102.07C623.07 102.063 623.07 102.054 623.08 102.047C623.06 102.074 623.04 102.101 623.01 102.128ZM535.004 102.101C535.013 102.09 535.023 102.081 535.031 102.07C535.038 102.063 535.043 102.054 535.049 102.047C535.034 102.065 535.019 102.083 535.004 102.101ZM483.468 96.616L483.454 96.311C483.454 96.308 483.453 96.306 483.453 96.304C483.463 96.406 483.468 96.51 483.468 96.616ZM41.979 94.505C42.051 94.577 42.118 94.651 42.181 94.727C42.118 94.65 42.051 94.577 41.979 94.505ZM40.473 93.682L40.305 93.649C40.295 93.648 40.285 93.646 40.276 93.645C40.343 93.655 40.408 93.668 40.473 93.682ZM481.098 93.682L480.93 93.649C480.92 93.648 480.91 93.646 480.901 93.645C480.968 93.655 481.033 93.668 481.098 93.682ZM30.027 93.592C30.027 93.593 30.027 93.593 30.027 93.593H39.578C39.601 93.593 39.623 93.593 39.646 93.594C39.623 93.593 39.601 93.592 39.578 93.592H30.027ZM470.652 93.592C470.652 93.593 470.652 93.593 470.652 93.593H480.203C480.226 93.593 480.248 93.593 480.271 93.594C480.248 93.593 480.226 93.592 480.203 93.592H470.652ZM124.907 83.407C124.814 83.371 124.721 83.334 124.626 83.3L124.531 83.267C124.658 83.312 124.783 83.358 124.907 83.407ZM478.331 81.545C478.486 81.545 478.636 81.551 478.781 81.565L478.56 81.549C478.485 81.545 478.409 81.545 478.331 81.545ZM37.706 81.545C37.83 81.545 37.951 81.549 38.069 81.558L37.706 81.545ZM105.135 76.212C105.043 76.266 104.952 76.322 104.861 76.378C104.988 76.3 105.116 76.225 105.244 76.149C105.208 76.171 105.171 76.19 105.135 76.212ZM172.989 72.162C172.996 72.239 173.104 72.249 173.125 72.174L173.864 69.493L174.91 65.701C175.135 64.886 174.521 64.08 173.675 64.08C172.923 64.08 172.333 64.724 172.399 65.473L172.989 72.162ZM392.88 72.162C392.887 72.239 392.995 72.249 393.015 72.174L393.755 69.493L394.8 65.701C395.025 64.886 394.412 64.08 393.566 64.08C392.814 64.08 392.224 64.724 392.29 65.473L392.88 72.162ZM511.693 71.794C511.608 71.798 511.521 71.8 511.434 71.8C511.41 71.8 511.386 71.798 511.362 71.798C511.386 71.798 511.41 71.801 511.434 71.801C511.609 71.801 511.779 71.793 511.944 71.778L511.693 71.794ZM513.752 71.198C513.801 71.167 513.849 71.136 513.897 71.103C513.916 71.089 513.935 71.073 513.954 71.059C513.888 71.107 513.821 71.154 513.752 71.198ZM514.358 70.705C514.298 70.768 514.235 70.828 514.17 70.888C514.108 70.941 514.045 70.991 513.98 71.04C513.998 71.026 514.017 71.013 514.035 70.999C514.081 70.963 514.126 70.926 514.17 70.888C514.236 70.828 514.298 70.768 514.358 70.705ZM452.72 53.602C452.629 53.607 452.541 53.616 452.455 53.627C452.541 53.616 452.629 53.607 452.721 53.602C452.825 53.595 452.933 53.592 453.045 53.592C452.933 53.592 452.825 53.595 452.72 53.602ZM373.382 38.616L373.368 38.311C373.368 38.308 373.368 38.306 373.367 38.304C373.377 38.406 373.382 38.51 373.382 38.616ZM454.613 36.45C454.688 36.466 454.761 36.484 454.833 36.504C454.689 36.464 454.541 36.432 454.389 36.408L454.613 36.45ZM360.566 35.592C360.566 35.593 360.566 35.593 360.566 35.593H370.117C370.309 35.593 370.494 35.603 370.67 35.624C370.494 35.602 370.309 35.592 370.117 35.592H360.566ZM370.162 28.686V28.687C370.233 28.653 370.301 28.615 370.366 28.575C370.301 28.615 370.233 28.653 370.162 28.686ZM441.693 26.841C441.741 26.931 441.798 27.016 441.861 27.096C441.829 27.056 441.8 27.014 441.772 26.972C441.744 26.929 441.717 26.886 441.693 26.841ZM442.507 24.156C442.507 24.156 442.507 24.155 442.506 24.156C442.401 24.222 442.303 24.292 442.214 24.365C442.214 24.366 442.214 24.366 442.215 24.366C442.304 24.292 442.401 24.223 442.507 24.156ZM368.245 23.545C368.369 23.545 368.49 23.549 368.608 23.558C368.49 23.548 368.369 23.545 368.245 23.545Z" fill="black"/>
</svg>