<svg width="611" height="103" viewBox="0 0 611 102" fill="none" xmlns="http://www.w3.org/2000/svg" preserveAspectRatio="none">
  <path d="M59.267 7.71997C57.987 7.71997 56.915 7.33599 56.051 6.56799C55.219 5.76799 54.803 4.77598 54.803 3.59198C54.803 2.59998 55.155 1.80002 55.859 1.19202C56.563 0.584017 57.491 0.280029 58.643 0.280029C59.923 0.280029 60.979 0.664007 61.811 1.43201C62.643 2.20001 63.059 3.17599 63.059 4.35999C63.059 5.35199 62.707 6.16798 62.003 6.80798C61.299 7.41598 60.387 7.71997 59.267 7.71997ZM65.603 9.40002L68.531 43H56.099L53.171 9.40002H65.603ZM84.497 33.88H101.345L102.113 43H72.833L69.905 9.40002H82.337L84.497 33.88ZM105.271 43L102.343 9.40002H114.775L115.879 21.784H129.895L128.791 9.40002H141.223L144.151 43H131.719L130.663 30.904H116.647L117.703 43H105.271ZM176.809 43L175.081 38.776H160.969L159.961 43H146.569L155.833 9.40002H175.081L190.201 43H176.809ZM162.937 30.616H171.673L166.729 18.664H165.769L162.937 30.616ZM226.247 43L224.759 26.2H224.231L215.495 41.032L204.119 26.2H203.543L205.031 43H192.599L189.671 9.40002H203.783L213.575 22.84H214.199L221.639 9.40002H235.751L238.679 43H226.247ZM254.653 33.88H271.501L272.269 43H242.989L240.061 9.40002H252.493L254.653 33.88ZM303.747 43L302.019 38.776H287.907L286.899 43H273.507L282.771 9.40002H302.019L317.139 43H303.747ZM289.875 30.616H298.611L293.667 18.664H292.707L289.875 30.616ZM363.207 26.392C365.607 26.84 367.511 27.88 368.919 29.512C370.359 31.144 371.079 33.128 371.079 35.464C371.079 37.864 370.247 39.72 368.583 41.032C366.919 42.344 364.647 43 361.767 43H333.927L330.999 9.40002H357.639C360.871 9.40002 363.495 10.28 365.511 12.04C367.527 13.768 368.535 16.024 368.535 18.808C368.535 22.36 366.743 24.712 363.159 25.864L363.207 26.392ZM344.151 17.464L344.631 22.888H353.367C354.263 22.888 354.951 22.648 355.431 22.168C355.911 21.688 356.151 21.096 356.151 20.392C356.151 19.56 355.847 18.872 355.239 18.328C354.663 17.752 353.879 17.464 352.887 17.464H344.151ZM355.239 34.936C356.167 34.936 356.855 34.712 357.303 34.264C357.783 33.784 358.023 33.208 358.023 32.536C358.023 31.704 357.735 31 357.159 30.424C356.583 29.816 355.783 29.512 354.759 29.512H345.207L345.687 34.936H355.239ZM402.044 43L400.316 38.776H386.204L385.196 43H371.804L381.068 9.40002H400.316L415.436 43H402.044ZM388.172 30.616H396.908L391.964 18.664H391.004L388.172 30.616ZM454.198 33.496C454.198 39.64 449.046 42.952 438.742 43.432L438.358 45.256H439.078C440.902 45.256 442.358 45.64 443.446 46.408C444.534 47.208 445.078 48.264 445.078 49.576C445.078 50.792 444.502 51.752 443.35 52.456C442.198 53.192 440.47 53.56 438.166 53.56C435.894 53.56 434.038 53.192 432.598 52.456C431.158 51.72 430.278 50.664 429.958 49.288H434.998C435.382 50.088 436.278 50.488 437.686 50.488C439.158 50.488 439.894 50.024 439.894 49.096C439.894 48.04 439.158 47.512 437.686 47.512C436.79 47.512 436.134 47.72 435.718 48.136H432.79L433.702 43.432C427.846 43.176 423.222 42.024 419.83 39.976C416.47 37.896 414.582 35.048 414.166 31.432H426.886C427.334 33.832 430.198 35.032 435.478 35.032C439.446 35.032 441.43 34.184 441.43 32.488C441.43 31.848 441.174 31.352 440.662 31C440.182 30.648 439.638 30.424 439.03 30.328C438.454 30.2 437.686 30.12 436.726 30.088L428.662 29.704C427.702 29.672 426.886 29.624 426.214 29.56C425.542 29.496 424.63 29.384 423.478 29.224C422.326 29.032 421.334 28.808 420.502 28.552C419.702 28.264 418.822 27.864 417.862 27.352C416.902 26.808 416.118 26.2 415.51 25.528C414.934 24.824 414.438 23.944 414.022 22.888C413.606 21.832 413.398 20.648 413.398 19.336C413.398 15.912 415.014 13.32 418.246 11.56C421.51 9.8 425.974 8.91998 431.638 8.91998C438.102 8.91998 443.174 9.944 446.854 11.992C450.534 14.04 452.55 16.952 452.902 20.728H440.182C439.734 18.328 437.126 17.128 432.358 17.128C428.198 17.128 426.118 18.024 426.118 19.816C426.118 20.296 426.246 20.696 426.502 21.016C426.758 21.304 427.174 21.528 427.75 21.688C428.358 21.848 428.95 21.96 429.526 22.024C430.102 22.088 430.902 22.136 431.926 22.168L440.134 22.552C444.774 22.776 448.278 23.816 450.646 25.672C453.014 27.528 454.198 30.136 454.198 33.496ZM469.669 33.88H486.517L487.285 43H458.005L455.077 9.40002H467.509L469.669 33.88ZM518.763 43L517.035 38.776H502.923L501.915 43H488.523L497.787 9.40002H517.035L532.155 43H518.763ZM504.891 30.616H513.627L508.683 18.664H507.723L504.891 30.616ZM533.88 48.088L536.76 42.904C535.608 42.424 534.664 41.656 533.928 40.6C533.192 39.512 532.824 38.312 532.824 37C532.824 35.496 533.352 34.232 534.408 33.208C535.464 32.184 536.856 31.672 538.584 31.672C540.536 31.672 542.152 32.28 543.432 33.496C544.712 34.712 545.352 36.232 545.352 38.056C545.352 39.56 544.552 41.352 542.952 43.432L539.304 48.088H533.88ZM32.668 84.392C35.068 84.84 36.972 85.88 38.38 87.512C39.82 89.144 40.54 91.128 40.54 93.464C40.54 95.864 39.708 97.72 38.044 99.032C36.38 100.344 34.108 101 31.228 101H3.38797L0.459961 67.4H27.1C30.332 67.4 32.956 68.28 34.972 70.04C36.988 71.768 37.996 74.024 37.996 76.808C37.996 80.36 36.204 82.712 32.62 83.864L32.668 84.392ZM13.612 75.464L14.092 80.888H22.828C23.724 80.888 24.412 80.648 24.892 80.168C25.372 79.688 25.612 79.096 25.612 78.392C25.612 77.56 25.308 76.872 24.7 76.328C24.124 75.752 23.34 75.464 22.348 75.464H13.612ZM24.7 92.936C25.628 92.936 26.316 92.712 26.764 92.264C27.244 91.784 27.484 91.208 27.484 90.536C27.484 89.704 27.196 89 26.62 88.424C26.044 87.816 25.244 87.512 24.22 87.512H14.668L15.148 92.936H24.7ZM71.505 101L69.777 96.776H55.665L54.657 101H41.265L50.529 67.4H69.777L84.897 101H71.505ZM57.633 88.616H66.369L61.425 76.664H60.465L57.633 88.616ZM103.62 65.72C101.348 65.72 99.46 65.288 97.956 64.424C96.484 63.528 95.7 62.36 95.604 60.92H100.74C100.804 61.368 101.076 61.752 101.556 62.072C102.036 62.36 102.628 62.504 103.332 62.504C104.036 62.504 104.596 62.36 105.012 62.072C105.46 61.752 105.668 61.368 105.636 60.92H110.772C110.932 62.36 110.356 63.528 109.044 64.424C107.732 65.288 105.924 65.72 103.62 65.72ZM122.532 101.048L119.892 96.776H119.028C115.828 99.912 110.98 101.48 104.484 101.48C97.732 101.48 92.3079 99.816 88.2119 96.488C84.1479 93.16 82.116 88.776 82.116 83.336C82.116 78.408 84.0359 74.44 87.8759 71.432C91.7159 68.424 96.932 66.92 103.524 66.92C109.828 66.92 115.172 68.296 119.556 71.048C123.94 73.768 126.484 77.352 127.188 81.8H114.468C113.796 80.104 112.516 78.776 110.628 77.816C108.772 76.856 106.58 76.376 104.052 76.376C101.108 76.376 98.82 77.016 97.188 78.296C95.588 79.576 94.788 81.304 94.788 83.48C94.788 86.104 95.748 88.184 97.668 89.72C99.62 91.256 102.228 92.024 105.492 92.024C109.652 92.024 112.532 90.936 114.132 88.76H101.604L101.22 83.912H127.38L127.716 87.992L128.868 101.048H122.532ZM144.849 91.88H161.697L162.465 101H133.185L130.257 67.4H142.689L144.849 91.88ZM193.942 101L192.214 96.776H178.102L177.094 101H163.702L172.966 67.4H192.214L207.334 101H193.942ZM180.07 88.616H188.806L183.862 76.664H182.902L180.07 88.616ZM234.932 101L221.3 84.392H220.724L222.164 101H209.732L206.804 67.4H221.444L234.884 84.824H235.508L233.972 67.4H246.404L249.332 101H234.932ZM286.534 76.52H274.486L276.646 101H264.214L262.054 76.52H250.101L249.285 67.4H285.718L286.534 76.52ZM301.079 67.4L304.007 101H291.575L288.647 67.4H301.079ZM333.798 89.144L334.806 101H322.374L321.366 89.144L303.462 67.4H317.574L326.214 78.968H327.03L333.702 67.4H347.766L333.798 89.144ZM364.739 91.88H381.587L382.355 101H353.075L350.147 67.4H362.579L364.739 91.88ZM413.833 101L412.105 96.776H397.993L396.985 101H383.593L392.857 67.4H412.105L427.225 101H413.833ZM399.961 88.616H408.697L403.753 76.664H402.793L399.961 88.616ZM473.293 84.392C475.693 84.84 477.597 85.88 479.005 87.512C480.445 89.144 481.165 91.128 481.165 93.464C481.165 95.864 480.333 97.72 478.669 99.032C477.005 100.344 474.733 101 471.853 101H444.013L441.085 67.4H467.725C470.957 67.4 473.581 68.28 475.597 70.04C477.613 71.768 478.621 74.024 478.621 76.808C478.621 80.36 476.829 82.712 473.245 83.864L473.293 84.392ZM454.237 75.464L454.717 80.888H463.453C464.349 80.888 465.037 80.648 465.517 80.168C465.997 79.688 466.237 79.096 466.237 78.392C466.237 77.56 465.933 76.872 465.325 76.328C464.749 75.752 463.965 75.464 462.973 75.464H454.237ZM465.325 92.936C466.253 92.936 466.941 92.712 467.389 92.264C467.869 91.784 468.109 91.208 468.109 90.536C468.109 89.704 467.821 89 467.245 88.424C466.669 87.816 465.869 87.512 464.845 87.512H455.293L455.773 92.936H465.325ZM496.075 65.72C494.795 65.72 493.723 65.336 492.859 64.568C492.027 63.768 491.611 62.776 491.611 61.592C491.611 60.6 491.963 59.8 492.667 59.192C493.371 58.584 494.299 58.28 495.451 58.28C496.731 58.28 497.787 58.664 498.619 59.432C499.451 60.2 499.867 61.176 499.867 62.36C499.867 63.352 499.515 64.168 498.811 64.808C498.107 65.416 497.195 65.72 496.075 65.72ZM506.251 65.72C504.971 65.72 503.915 65.336 503.083 64.568C502.251 63.768 501.835 62.776 501.835 61.592C501.835 60.6 502.187 59.8 502.891 59.192C503.595 58.584 504.507 58.28 505.627 58.28C506.907 58.28 507.963 58.664 508.795 59.432C509.659 60.2 510.091 61.176 510.091 62.36C510.091 63.352 509.723 64.168 508.987 64.808C508.283 65.416 507.371 65.72 506.251 65.72ZM504.283 101.432C497.947 101.432 492.987 100.072 489.403 97.352C485.851 94.632 483.851 90.728 483.403 85.64L481.819 67.4H494.251L495.787 85.016C496.171 89.336 498.699 91.496 503.371 91.496C508.075 91.496 510.235 89.336 509.851 85.016L508.315 67.4H520.747L522.331 85.64C522.779 90.728 521.451 94.632 518.347 97.352C515.275 100.072 510.587 101.432 504.283 101.432ZM553.501 89.144L554.509 101H542.077L541.069 89.144L523.165 67.4H537.277L545.917 78.968H546.733L553.405 67.4H567.469L553.501 89.144ZM584.11 65.72C582.83 65.72 581.75 65.336 580.89 64.568C580.06 63.768 579.64 62.776 579.64 61.592C579.64 60.6 579.99 59.8 580.7 59.192C581.4 58.584 582.33 58.28 583.48 58.28C584.76 58.28 585.82 58.664 586.65 59.432C587.48 60.2 587.9 61.176 587.9 62.36C587.9 63.352 587.55 64.168 586.84 64.808C586.14 65.416 585.23 65.72 584.11 65.72ZM594.28 65.72C593 65.72 591.95 65.336 591.11 64.568C590.28 63.768 589.87 62.776 589.87 61.592C589.87 60.6 590.22 59.8 590.92 59.192C591.63 58.584 592.54 58.28 593.66 58.28C594.94 58.28 595.99 58.664 596.83 59.432C597.69 60.2 598.12 61.176 598.12 62.36C598.12 63.352 597.75 64.168 597.02 64.808C596.31 65.416 595.4 65.72 594.28 65.72ZM592.31 101.432C585.98 101.432 581.02 100.072 577.43 97.352C573.883 94.632 571.883 90.728 571.435 85.64L569.851 67.4H582.28L583.82 85.016C584.2 89.336 586.73 91.496 591.4 91.496C596.11 91.496 598.27 89.336 597.88 85.016L596.35 67.4H608.78L610.36 85.64C610.81 90.728 609.48 94.632 606.38 97.352C603.31 100.072 598.62 101.432 592.31 101.432Z" fill="white"/>
</svg>