<svg width="139" height="55" viewBox="0 0 139 55" fill="none" xmlns="http://www.w3.org/2000/svg">
<path d="M7.85803 1.70747C8.25803 1.42207 9.53703 0.884973 11.455 1.02197H28.58C29.836 1.07907 33.203 1.87897 33.546 6.84517H133.934L138 24.2905L128.581 36.792H89.365L83.543 45.034L19.987 44.708L6.14602 53.939L1.00903 10.27C0.952029 9.75627 1.14602 8.45487 2.37902 7.35887L7.85803 1.70747Z" fill="#191919"/>
<path d="M7.85796 1.70743L7.27696 0.893728C7.22796 0.928728 7.18196 0.968128 7.13996 1.01133L7.85796 1.70743ZM11.455 1.02193L11.384 2.01933C11.408 2.02103 11.431 2.02193 11.455 2.02193V1.02193ZM28.58 1.02193L28.625 0.0229321C28.61 0.0222321 28.595 0.0219326 28.58 0.0219326V1.02193ZM33.546 6.84513L32.548 6.91393C32.584 7.43823 33.02 7.84513 33.546 7.84513V6.84513ZM133.934 6.84513L134.908 6.61813C134.802 6.16543 134.398 5.84513 133.934 5.84513V6.84513ZM138 24.2904L138.799 24.8922C138.977 24.6555 139.041 24.352 138.974 24.0634L138 24.2904ZM128.581 36.7919V37.7919C128.895 37.7919 129.191 37.6439 129.38 37.3929L128.581 36.7919ZM89.365 36.7919V35.7914C89.04 35.7914 88.736 35.9491 88.548 36.2149L89.365 36.7919ZM83.543 45.0339L83.538 46.0339C83.864 46.0349 84.1709 45.8769 84.3599 45.6109L83.543 45.0339ZM19.987 44.7079L19.992 43.7079C19.793 43.7069 19.598 43.7649 19.432 43.8759L19.987 44.7079ZM6.14596 53.9389L5.15296 54.0559C5.19396 54.4009 5.41097 54.7009 5.72697 54.8469C6.04297 54.9929 6.41197 54.9639 6.70097 54.7709L6.14596 53.9389ZM1.00897 10.2699L0.0149623 10.3803L0.0159694 10.3868L1.00897 10.2699ZM2.37896 7.35883L3.04296 8.10623C3.06196 8.08983 3.07996 8.07263 3.09696 8.05493L2.37896 7.35883ZM7.85796 1.70743L8.43997 2.52113C8.61797 2.39383 9.65597 1.89593 11.384 2.01933L11.455 1.02193L11.526 0.0244275C9.41796 -0.126073 7.89796 0.450228 7.27696 0.893728L7.85796 1.70743ZM11.455 1.02193V2.02193H28.58V1.02193V0.0219326H11.455V1.02193ZM28.58 1.02193L28.535 2.02083C29.022 2.04303 29.954 2.21593 30.783 2.87543C31.578 3.50723 32.394 4.67493 32.548 6.91393L33.546 6.84513L34.544 6.77633C34.355 4.04913 33.316 2.33363 32.028 1.30973C30.774 0.313429 29.394 0.0578321 28.625 0.0229321L28.58 1.02193ZM33.546 6.84513V7.84513H133.934V6.84513V5.84513H33.546V6.84513ZM133.934 6.84513L132.96 7.07213L137.026 24.5174L138 24.2904L138.974 24.0634L134.908 6.61813L133.934 6.84513ZM138 24.2904L137.201 23.6887L127.782 36.1899L128.581 36.7919L129.38 37.3929L138.799 24.8922L138 24.2904ZM128.581 36.7919V35.7914H89.365V36.7919V37.7919H128.581V36.7919ZM89.365 36.7919L88.548 36.2149L82.726 44.4569L83.543 45.0339L84.3599 45.6109L90.182 37.3679L89.365 36.7919ZM83.543 45.0339L83.548 44.0339L19.992 43.7079L19.987 44.7079L19.982 45.7079L83.538 46.0339L83.543 45.0339ZM19.987 44.7079L19.432 43.8759L5.59196 53.1069L6.14596 53.9389L6.70097 54.7709L20.542 45.5389L19.987 44.7079ZM6.14596 53.9389L7.13996 53.8219L2.00196 10.1531L1.00897 10.2699L0.0159694 10.3868L5.15296 54.0559L6.14596 53.9389ZM1.00897 10.2699L2.00297 10.1595C1.97997 9.95143 2.06496 8.97563 3.04296 8.10623L2.37896 7.35883L1.71496 6.61143C0.226959 7.93393 -0.0760377 9.56103 0.0149623 10.3803L1.00897 10.2699ZM2.37896 7.35883L3.09696 8.05493L8.57597 2.40353L7.85796 1.70743L7.13996 1.01133L1.66096 6.66273L2.37896 7.35883Z" fill="white"/>
<path d="M137.658 23.9478L128.239 36.449H89.0229L85.9399 23.9478H137.658Z" fill="black"/>
<path d="M73.215 34.9806L70.741 23.7988H82.248L82.926 26.8339H75.594L75.857 28.0798H83.189L83.78 30.6996H76.448L76.727 31.9456H84.059L84.722 34.9806H73.215Z" fill="white"/>
<path d="M68.6319 29.4536C69.4579 29.6027 70.1429 29.9488 70.6889 30.4919C71.2439 31.035 71.5739 31.6953 71.6779 32.4727C71.7839 33.2714 71.5869 33.8891 71.0869 34.3257C70.5859 34.7623 69.8529 34.9806 68.8859 34.9806H59.5389L57.0649 23.7988H66.0089C67.0939 23.7988 68.014 24.0916 68.769 24.6774C69.523 25.2524 69.9609 26.0032 70.0849 26.9297C70.2419 28.1118 69.7449 28.8945 68.5929 29.2779L68.6319 29.4536ZM61.838 26.4824L62.2399 28.2875H65.1729C65.4739 28.2875 65.694 28.2076 65.834 28.0479C65.974 27.8882 66.0279 27.6911 65.9969 27.4569C65.9599 27.18 65.8279 26.951 65.5989 26.77C65.3799 26.5783 65.1039 26.4824 64.7709 26.4824H61.838ZM66.3359 32.297C66.6479 32.297 66.8689 32.2225 66.9989 32.0734C67.1389 31.9136 67.1939 31.7219 67.1649 31.4983C67.1279 31.2214 66.9999 30.9871 66.7809 30.7954C66.5599 30.5931 66.2779 30.4919 65.9349 30.4919H62.7279L63.1289 32.297H66.3359Z" fill="white"/>
<path d="M55.621 23.7988L58.095 34.9806H53.921L51.447 23.7988H55.621Z" fill="white"/>
<path d="M35.772 23.7988H40.43L44.76 31.4983H45.082L45.99 23.7988H50.647L48.786 34.9807H42.549L35.772 23.7988Z" fill="white"/>
<path d="M121.07 20.8658L118.569 9.56299H130.2L130.886 12.6309H123.474L123.74 13.8904H131.152L131.749 16.5384H124.337L124.619 17.7979H132.031L132.701 20.8658H121.07Z" fill="white"/>
<path d="M115.773 17.4749L120.086 20.8658H114.889L110.612 17.3781H109.863L110.638 20.8658H106.419L103.918 9.56299H112.91C114.441 9.56299 115.71 9.95589 116.716 10.7417C117.733 11.5275 118.33 12.5825 118.506 13.9065C118.634 14.8645 118.455 15.6396 117.969 16.2316C117.493 16.8129 116.77 17.1735 115.8 17.3135L115.773 17.4749ZM112.951 15.0045C113.863 15.0045 114.273 14.6546 114.18 13.9549C114.058 13.04 113.47 12.5825 112.417 12.5825H108.8L109.335 15.0045H112.951Z" fill="white"/>
<path d="M98.385 21.0111C96.235 21.0111 94.49 20.5536 93.152 19.6386C91.825 18.7236 90.971 17.4103 90.591 15.6988L89.235 9.56299H93.454L94.765 15.4889C95.089 16.9421 96.044 17.6687 97.63 17.6687C99.226 17.6687 99.862 16.9421 99.538 15.4889L98.227 9.56299H102.446L103.801 15.6988C104.182 17.4103 103.906 18.7236 102.975 19.6386C102.054 20.5536 100.524 21.0111 98.385 21.0111Z" fill="white"/>
<path d="M88.926 12.6309H84.838L86.669 20.8658H82.45L80.619 12.6309H76.562L75.876 9.56299H88.24L88.926 12.6309Z" fill="white"/>
<path d="M72.512 20.8658L67.141 15.279H66.946L68.179 20.8658H63.96L61.459 9.56299H66.428L71.77 15.4243H71.982L70.679 9.56299H74.898L77.399 20.8658H72.512Z" fill="white"/>
<path d="M50.932 20.8658L48.431 9.56299H60.062L60.748 12.6309H53.336L53.602 13.8904H61.014L61.611 16.5384H54.199L54.481 17.7979H61.893L62.563 20.8658H50.932Z" fill="white"/>
<path d="M32.588 9.56299H37.296L41.673 17.3458H41.998L42.916 9.56299H47.623L45.742 20.8658H39.438L32.588 9.56299Z" fill="white"/>
<path d="M23.493 3.05518L21.222 3.94788C20.558 4.20908 20.241 4.96778 20.522 5.62388L21.721 8.53518L18.296 11.1039L17.937 9.39878C17.723 8.38118 17.319 7.38677 16.584 6.65137C14.871 5.62387 13.159 6.48018 13.159 8.02138L13.33 11.2752L14.186 16.5839C13.521 17.3025 12.263 21.0693 12.302 21.8927C11.104 22.9202 12.025 24.3764 12.302 24.9752C13.445 27.261 16.942 33.9726 18.674 37.2889C19.294 38.4779 20.468 39.2719 21.802 39.4109L23.006 39.5359L26.345 39.8829H16.481L12.441 43.8129L8.28099 6.64808C7.80599 3.95338 9.35098 3.12998 10.183 3.05518H23.493Z" fill="white"/>
<path d="M25.2291 7.18633L25.9751 4.37913C26.0161 3.89083 25.3861 3.73553 25.2121 4.20453C24.9051 5.03023 24.7941 6.08383 24.5091 6.93353C24.4811 7.19803 24.7141 7.45683 24.9801 7.37383C25.0031 7.36693 25.2151 7.20473 25.2291 7.18633ZM21.6511 4.66423C21.4071 4.73143 21.3731 5.00624 21.4331 5.21974C21.5211 5.53444 22.0841 6.97763 22.2451 7.20913C22.5001 7.57753 23.0131 7.36013 22.9151 6.86683C22.8581 6.58053 22.2841 5.15703 22.1301 4.88433C22.0301 4.70693 21.8531 4.60823 21.6511 4.66423ZM28.8941 6.95703C29.1151 6.60373 28.8031 6.17753 28.4081 6.35183L26.3891 7.95093C26.1011 8.28543 26.4281 8.79223 26.8371 8.60373L28.8941 6.95703ZM19.8601 16.4132C20.1591 15.8661 20.5541 15.3159 20.9841 14.8654C22.3191 13.4631 25.0271 11.8269 25.0051 9.67423C24.9961 8.82253 24.5341 8.24703 23.6581 8.34923C22.8091 8.44813 21.4291 9.70294 20.7231 10.2654C18.7171 11.8644 17.4331 12.8744 16.0371 15.1037C14.8471 17.0039 13.8351 19.0373 13.2371 21.2179C13.7191 20.7966 14.1061 20.2754 14.5501 19.8138C15.3381 18.9949 16.2291 18.0914 17.0941 17.3641C17.6251 16.9175 18.1561 16.429 18.8511 16.3581C19.1751 16.3248 19.5341 16.416 19.8601 16.4132ZM27.4741 9.83613C27.0691 9.93833 27.1221 10.5626 27.5771 10.62C28.2441 10.7036 29.0231 10.5744 29.6991 10.6429C30.1621 10.591 30.2111 9.90633 29.7611 9.84283C29.4061 9.79303 28.9351 9.89313 28.5661 9.81453C28.2361 9.89143 27.7831 9.75833 27.4741 9.83613ZM24.9771 12.4298C23.1041 12.7151 22.5391 16.4687 22.6811 17.9952C22.7001 18.1985 22.7711 18.7944 22.8361 18.9579C22.9181 19.1644 23.7101 19.8017 23.9221 20.0211C24.1251 20.2326 24.3821 20.5194 24.5351 20.7676C25.3121 22.0353 24.8261 23.6865 23.6901 24.5264C24.4071 25.5061 24.6671 26.9071 23.4031 27.547C22.5931 27.9572 21.8041 27.784 21.0481 27.3465L18.9711 25.8447C18.8811 25.7443 19.0911 25.6278 19.1731 25.5735C19.2941 25.4933 19.6021 25.3229 19.7381 25.3594C19.8631 25.3928 20.3331 25.8129 20.4861 25.9215C21.1981 26.4292 22.2531 27.3806 23.1401 26.7318C23.6341 26.3706 23.4861 25.8515 23.2481 25.3797C22.9351 24.7578 22.6801 24.6236 22.2101 24.1901C21.4331 23.4721 20.5101 22.3479 19.6161 21.838C19.1341 21.563 18.8161 21.8085 18.3911 22.062C17.4031 22.6526 16.5531 23.4944 15.5361 24.0197C15.1121 24.0996 14.8711 23.7242 15.1681 23.3743C15.4101 23.0887 16.1601 22.5812 16.4961 22.3361C17.0841 21.906 18.4251 20.8952 19.1131 20.8567C20.1411 20.7994 21.1981 22.0669 21.8891 22.7173C22.3001 23.1039 22.7081 23.4937 23.1421 23.8541C23.2021 23.882 23.4561 23.6487 23.5091 23.5918C23.7731 23.3088 24.0001 22.8169 24.0611 22.432C24.2681 21.1152 23.1241 20.4788 22.3261 19.7067C21.7511 19.1507 20.3871 17.4428 19.7391 17.2369C18.5371 16.8558 17.3371 18.2211 16.5411 18.9934C15.4881 20.0144 14.1631 21.3232 13.2541 22.4585C12.7531 23.0843 12.6471 23.5125 12.9561 24.2925C13.1601 24.8098 13.4961 25.3915 13.7521 25.8964C15.2901 28.9275 17.0101 31.9065 18.6321 34.8965C19.1181 35.7931 19.6071 36.914 20.1501 37.748C20.8511 38.824 22.3381 38.201 23.2811 37.823C24.5851 37.299 26.0261 36.463 27.1291 35.5855C27.5571 35.2443 28.5141 34.4696 28.7041 33.9737C29.1221 32.8834 28.0761 31.9459 28.2831 30.9669C28.4071 30.3818 28.6561 29.7742 28.7891 29.1607C29.2331 27.1139 29.2901 24.1481 28.4891 22.1957C28.0731 21.1813 27.4121 20.3546 26.9281 19.3918C26.2391 18.0216 25.9591 16.5963 25.9921 15.0532C26.0091 14.1996 26.5141 12.1958 24.9771 12.4298Z" fill="#C5F910"/>
<path d="M24.977 12.43C26.514 12.1959 26.009 14.1995 25.992 15.053C25.96 16.5961 26.239 18.0211 26.928 19.3917C27.413 20.3544 28.074 21.1811 28.49 22.1955C29.291 24.1483 29.234 27.1138 28.789 29.1606C28.656 29.7741 28.407 30.3817 28.283 30.9668C28.076 31.9458 29.122 32.8833 28.704 33.9736C28.514 34.4694 27.558 35.2441 27.129 35.5854C26.026 36.4632 24.585 37.2992 23.281 37.8222C22.338 38.2012 20.851 38.8242 20.15 37.7472C19.607 36.9142 19.118 35.793 18.632 34.8964C17.01 31.9064 15.29 28.9273 13.752 25.8963C13.496 25.3913 13.161 24.8096 12.956 24.2923C12.647 23.5124 12.753 23.0842 13.255 22.4583C14.164 21.323 15.489 20.0143 16.541 18.9932C17.337 18.2209 18.537 16.8556 19.739 17.2368C20.388 17.4426 21.752 19.1506 22.326 19.7065C23.124 20.4787 24.268 21.1147 24.061 22.4319C24 22.8168 23.773 23.3087 23.509 23.5917C23.456 23.6486 23.202 23.8819 23.142 23.854C22.708 23.4936 22.3 23.1037 21.889 22.7171C21.198 22.0664 20.141 20.7989 19.113 20.8566C18.426 20.895 17.084 21.9058 16.496 22.3359C16.16 22.5811 15.41 23.0886 15.168 23.3742C14.871 23.7241 15.112 24.0991 15.536 24.0195C16.553 23.4943 17.403 22.6524 18.391 22.0619C18.816 21.8083 19.134 21.5632 19.616 21.8378C20.511 22.3481 21.433 23.472 22.211 24.19C22.681 24.6238 22.935 24.7581 23.248 25.3796C23.486 25.8517 23.634 26.3704 23.14 26.7317C22.252 27.3805 21.198 26.429 20.486 25.9213C20.334 25.8127 19.863 25.3927 19.738 25.3592C19.602 25.3227 19.295 25.4932 19.173 25.5733C19.091 25.6277 18.881 25.7442 18.971 25.8446L21.048 27.3464C21.804 27.7839 22.593 27.9571 23.403 27.5468C24.667 26.907 24.407 25.506 23.69 24.5263C24.826 23.6864 25.312 22.0351 24.535 20.7675C24.382 20.5189 24.125 20.2324 23.922 20.021C23.711 19.8015 22.919 19.1639 22.836 18.9578C22.77 18.7943 22.7 18.1984 22.682 17.9951C22.54 16.4682 23.104 12.7153 24.977 12.43Z" fill="#C5F910"/>
<path d="M19.8601 16.4133C19.5341 16.4162 19.1751 16.3252 18.8511 16.3585C18.1551 16.4295 17.6251 16.9176 17.0931 17.3645C16.2281 18.0918 15.3371 18.995 14.5501 19.8142C14.1061 20.2755 13.7191 20.7966 13.2371 21.2183C13.8351 19.0378 14.8471 17.0039 16.0371 15.1042C17.4331 12.8748 18.7161 11.8648 20.7231 10.2659C21.4291 9.70357 22.8091 8.44847 23.6581 8.34957C24.5331 8.24767 24.9961 8.82287 25.0051 9.67457C25.0261 11.8273 22.3181 13.4635 20.9831 14.8658C20.5541 15.3166 20.1591 15.8662 19.8601 16.4133Z" fill="#C5F910"/>
<path d="M25.229 7.1861C25.216 7.2046 25.003 7.3671 24.981 7.374C24.714 7.4566 24.481 7.1978 24.509 6.9336C24.794 6.084 24.906 5.0303 25.212 4.2046C25.387 3.7357 26.016 3.8905 25.975 4.3793L25.229 7.1861Z" fill="#C5F910"/>
<path d="M28.895 6.957L26.837 8.6037C26.428 8.7918 26.101 8.285 26.389 7.9509L28.408 6.3518C28.804 6.1775 29.115 6.6041 28.894 6.957H28.895Z" fill="#C5F910"/>
<path d="M27.475 7.83589C27.783 7.75819 28.236 7.89129 28.567 7.81429C28.935 7.89259 29.406 7.79239 29.761 7.84259C30.211 7.90579 30.162 8.59049 29.699 8.64269C29.023 8.57459 28.244 8.70379 27.578 8.61979C27.123 8.56279 27.069 7.93809 27.475 7.83589Z" fill="#C5F910"/>
<path d="M21.651 4.66408C21.853 4.60808 22.031 4.70728 22.131 4.88458C22.284 5.15698 22.859 6.58078 22.916 6.86718C23.014 7.36038 22.501 7.57788 22.245 7.20938C22.084 6.97758 21.521 5.53438 21.433 5.21998C21.374 5.00658 21.407 4.73128 21.651 4.66408Z" fill="#C5F910"/>
<path d="M17.6109 11.6176C16.9259 12.1656 15.5559 14.2434 14.8709 15.385C14.6719 14.9875 14.1309 11.2912 13.9799 9.09547C13.9069 8.04207 14.5279 6.85757 15.5249 7.20477C15.7439 7.28097 15.9219 7.40207 16.0699 7.50747C16.8919 7.91847 17.4399 10.4188 17.6109 11.6176Z" fill="#C5F910"/>
</svg>
