<svg width="1340" height="903" viewBox="0 0 1340 903" fill="none" xmlns="http://www.w3.org/2000/svg">
<path opacity="0.68" d="M1 104.962H1339M1 243.577H1339M1 382.192H1339M1 520.808H1339M1 659.423H1339M1 798.038H1339M77.023 1V902M168.25 1V902M259.477 1V902M350.705 1V902M441.932 1V902M533.159 1V902M624.386 1V902M715.614 1V902M806.841 1V902M898.068 1V902M989.3 1V902M1080.52 1V902M1171.75 1V902M1262.98 1V902" stroke="url(#paint0_radial_1_7)" stroke-linecap="round"/>
<defs>
<radialGradient id="paint0_radial_1_7" cx="0" cy="0" r="1" gradientUnits="userSpaceOnUse" gradientTransform="translate(670 451.5) rotate(90) scale(450.5 669)">
<stop offset="0.514423" stop-color="#8BB106"/>
<stop offset="1" stop-color="#B9B9B9" stop-opacity="0"/>
</radialGradient>
</defs>
</svg>
